<svg width="24" height="19" fill="none" xmlns="http://www.w3.org/2000/svg"><path d="M20.7 17.3c.4 0 .6.2.6.6 0 .4-.2.6-.6.6-.4 0-.5-.2-.5-.6 0-.4.1-.6.5-.6zm-15.2 0c.4 0 .6.2.6.6 0 .4-.2.6-.6.6-.3 0-.5-.2-.5-.6 0-.4.2-.6.5-.6zm5.5.4c0-.3.2-.4.5-.4s.5.1.5.4h-1zm6-.4c.4 0 .6.2.6.6 0 .4-.2.6-.6.6-.4 0-.6-.2-.6-.6 0-.4.2-.6.6-.6zm-12.8.4c0-.5-.2-.8-.7-.8-.3 0-.6.1-.7.4a.7.7 0 0 0-.6-.4c-.2 0-.4 0-.6.3V17h-.4v1.8h.4v-1.2l.2-.1.1-.2h.2c.2 0 .3 0 .4.2v1.3H3v-1.2l.2-.1v-.2h.3c.2 0 .3 0 .3.2l.1.9v.4h.4v-1.1zm2.3-.7h-.4v.2a.8.8 0 0 0-.6-.3 1 1 0 0 0-.7.3 1 1 0 0 0-.2.7c0 .3 0 .5.2.7.2.2.4.3.7.3.3 0 .5-.1.6-.3v.2h.4V17zm2 1.3c0-.3-.2-.5-.6-.6-.3 0-.5-.1-.5-.2 0-.2 0-.2.3-.2l.6.1.2-.3c-.2-.2-.6-.3-1-.2-.3 0-.5.3-.5.6s.2.5.5.6c.4 0 .6.1.6.2s-.1.2-.4.2a1 1 0 0 1-.6-.2l-.2.3c.3.2.6.3 1 .2.4 0 .6-.2.6-.5zm1.8.4v-.3c-.5.2-.7.1-.7-.2v-.9h.7V17h-.7v-.6h-.4v.6h-.4v.3h.4v.9c0 .4.2.6.5.7.3 0 .5 0 .6-.2zm.7-.6h1.4c0-.8-.3-1.2-.9-1.2-.2 0-.5.1-.6.3a1 1 0 0 0-.3.7c0 .5.2.8.6 1 .5 0 .8 0 1.1-.3l-.2-.3c-.2.2-.4.3-.7.2a.5.5 0 0 1-.4-.4zm3-1.1c-.3-.2-.6-.1-.7.2V17h-.5v1.8h.5v-1c0-.3 0-.5.2-.5h.4l.1-.3zm.9 1.5c-.2-.1-.3-.3-.3-.6s0-.5.3-.5h.7l.2-.3c-.3-.2-.7-.3-1 0-.5 0-.7.3-.7.8 0 .4.2.8.6 1 .5 0 .8 0 1-.3l-.1-.3c-.2.2-.5.2-.7.2zm3-1.5h-.4v.2c-.2-.3-.5-.4-.9-.2-.4.1-.6.4-.6.9 0 .4.2.8.6 1 .4 0 .7 0 1-.3v.2h.3V17zm1.7 0c-.3-.2-.5-.1-.7.2V17h-.4v1.8h.4v-1c0-.3 0-.4.2-.5h.4l.1-.3zm2-.8h-.3v1c-.2-.3-.5-.4-1-.2-.4.1-.6.4-.6 1 0 .4.2.7.7.8.4.2.7 0 .9-.2v.2h.4v-2.6z" fill="#0C061A"/><circle cx="7.4" cy="7.4" r="7.4" fill="#DD3D31"/><circle cx="16.6" cy="7.4" r="7.4" fill="#EEB046"/><path fill-rule="evenodd" clip-rule="evenodd" d="M12 13.3a7.4 7.4 0 0 0 0-11.7 7.4 7.4 0 0 0 0 11.7z" fill="#EF7D2F"/></svg>