<svg width="30" height="10" fill="none" xmlns="http://www.w3.org/2000/svg"><path d="M26.5 3.5l.5 2.7h-2l1-2.6.2-.5.1-.4.2.8zm-19.2 6L11 .3H8.5L6.2 6.6l-.3-1.3L5.1 1C5 .5 4.6.2 3.9.2H.1L0 .4c1 .2 1.8.5 2.5 1l2.2 8.2h2.6zm5.7 0L14.5.3h-2.4l-1.5 9.4H13zm8.5-3c0-1-.7-1.9-2-2.6-1-.4-1.5-.8-1.5-1.1 0-.5.5-.8 1.5-.8.6 0 1.2 0 1.7.4h.3l.3-2C21 .1 20.4 0 19.6 0c-.8 0-1.5.1-2.1.4-.6.3-1.1.6-1.5 1.1-.3.5-.5 1-.5 1.6 0 1 .7 1.9 2.2 2.6.8.4 1.2.8 1.2 1.1 0 .6-.5 1-1.4 1-.8 0-1.6-.2-2.3-.5l-.3-.2-.4 2a7 7 0 0 0 2.7.6 5 5 0 0 0 3-.8c.9-.6 1.3-1.4 1.3-2.4zm8.5 3L28 .3h-1.9c-.6 0-1 .2-1.2.8l-3.6 8.6h2.5l.5-1.4h3.2l.3 1.4H30z" fill="url(#paint0_linear)"/><defs><linearGradient id="paint0_linear" x1="1.1" y1="4.9" x2="29.6" y2="4.9" gradientUnits="userSpaceOnUse"><stop stop-color="#2C3572"/><stop offset="1" stop-color="#3C62AB"/></linearGradient></defs></svg>